<svg width="12" height="13" viewBox="0 0 12 13" fill="none" xmlns="http://www.w3.org/2000/svg">
<path fill-rule="evenodd" clip-rule="evenodd" d="M6.00005 0.5C9.3133 0.5 12 3.25413 12 6.6519C12 9.37008 10.2808 11.676 7.89687 12.4895C7.59711 12.5466 7.48702 12.3561 7.48702 12.1936C7.48702 12.0469 7.49259 11.5623 7.49517 11.0482C9.16436 11.4204 9.51658 10.3224 9.51658 10.3224C9.78951 9.61131 10.1828 9.42224 10.1828 9.42224C10.7272 9.04042 10.1417 9.04836 10.1417 9.04836C9.53933 9.09166 9.22199 9.68232 9.22199 9.68232C8.68685 10.6226 7.81838 10.3508 7.47599 10.1937C7.42214 9.79611 7.26665 9.52462 7.09506 9.37099C8.42773 9.21564 9.82876 8.68804 9.82876 6.3308C9.82876 5.65915 9.59428 5.11036 9.21046 4.67944C9.27286 4.52459 9.47823 3.89889 9.15244 3.05151C9.15244 3.05151 8.6487 2.88617 7.50212 3.6821C7.02342 3.5457 6.51005 3.47713 6.00005 3.47479C5.49035 3.47713 4.97668 3.54549 4.49708 3.6819C3.3519 2.88597 2.84875 3.05131 2.84875 3.05131C2.52217 3.89858 2.72754 4.52439 2.78984 4.67924C2.40513 5.11016 2.17233 5.65895 2.17233 6.3306C2.17233 8.69344 3.57595 9.2136 4.91199 9.366C4.69669 9.55691 4.50493 9.9314 4.50493 10.5052C4.50493 11.3284 4.51189 11.9909 4.51189 12.1935C4.51189 12.3572 4.40379 12.549 4.09975 12.4886C1.71718 11.6742 0 9.36906 0 6.6519C9.91821e-05 3.25434 2.68651 0.5 6.00005 0.5Z" fill="white"/>
<path d="M9.72739 9.33269C9.7406 9.36325 9.7875 9.37242 9.83022 9.35154C9.87394 9.33157 9.89828 9.28991 9.88417 9.25924C9.87126 9.22766 9.82426 9.219 9.78084 9.24009C9.73713 9.26016 9.71229 9.30223 9.72749 9.33279L9.72739 9.33269ZM9.48436 9.6107C9.51288 9.6379 9.56882 9.62527 9.60677 9.58218C9.64612 9.53939 9.65347 9.48204 9.62436 9.45443C9.59475 9.42733 9.5405 9.44017 9.50115 9.48295C9.46201 9.52635 9.45426 9.5832 9.48426 9.61081L9.48436 9.6107ZM9.2477 9.96492C9.28446 9.9912 9.34467 9.96665 9.38183 9.91194C9.41859 9.85713 9.41859 9.79143 9.38083 9.76524C9.34377 9.73896 9.28446 9.7627 9.2467 9.81689C9.21014 9.87241 9.21014 9.93822 9.2477 9.96492ZM8.92369 10.3073C8.95648 10.3445 9.02663 10.3345 9.07789 10.2839C9.13026 10.2343 9.14486 10.1637 9.11197 10.1266C9.07859 10.0893 9.00815 10.0997 8.95658 10.15C8.90422 10.1995 8.88842 10.2702 8.92349 10.3072L8.92369 10.3073ZM8.47659 10.5061C8.49119 10.5543 8.55856 10.5762 8.62662 10.5556C8.69448 10.5345 8.73889 10.4782 8.72498 10.4295C8.71107 10.3809 8.64321 10.3581 8.57475 10.38C8.50689 10.401 8.46248 10.4571 8.47659 10.5061ZM7.98547 10.5428C7.98378 10.5936 8.04141 10.6355 8.11264 10.6366C8.18448 10.6383 8.2426 10.5971 8.2433 10.5472C8.2433 10.496 8.18686 10.4545 8.11513 10.4531C8.04389 10.4518 7.98537 10.4925 7.98537 10.5427L7.98547 10.5428ZM7.52863 10.4632C7.52008 10.5126 7.56966 10.5634 7.6405 10.577C7.71005 10.5902 7.77463 10.5594 7.78358 10.5104C7.79212 10.4597 7.74165 10.4089 7.6721 10.3957C7.60116 10.3832 7.53757 10.413 7.52863 10.4632Z" fill="#181616"/>
</svg>
