<svg width="12" height="13" viewBox="0 0 12 13" fill="none" xmlns="http://www.w3.org/2000/svg">
<g clip-path="url(#clip0_3_43)">
<path d="M11.9938 6.61226C11.9938 6.12063 11.9529 5.76186 11.8646 5.38982H6.11963V7.60881H9.4918C9.42383 8.16026 9.0567 8.99073 8.24083 9.54878L8.2294 9.62307L10.0458 10.9982L10.1717 11.0104C11.3275 9.96736 11.9938 8.43264 11.9938 6.61226Z" fill="#4285F4"/>
<path d="M6.11955 12.4588C7.77163 12.4588 9.15857 11.9273 10.1716 11.0104L8.24076 9.54878C7.72406 9.9009 7.03057 10.1467 6.11955 10.1467C4.50145 10.1467 3.12811 9.10368 2.63855 7.66199L2.56679 7.66794L0.678021 9.09635L0.65332 9.16345C1.65953 11.1167 3.72636 12.4588 6.11955 12.4588Z" fill="#34A853"/>
<path d="M2.63863 7.66198C2.50946 7.28994 2.4347 6.89128 2.4347 6.47939C2.4347 6.06745 2.50946 5.66884 2.63184 5.29679L2.62841 5.21756L0.715971 3.7662L0.653399 3.79528C0.238692 4.60583 0.000732422 5.51604 0.000732422 6.47939C0.000732422 7.44273 0.238692 8.3529 0.653399 9.16345L2.63863 7.66198Z" fill="#FBBC05"/>
<path d="M6.11955 2.81202C7.26853 2.81202 8.04357 3.29701 8.48551 3.70231L10.2124 2.05464C9.15182 1.0913 7.77163 0.5 6.11955 0.5C3.72636 0.5 1.65953 1.84203 0.65332 3.79528L2.63176 5.29679C3.12811 3.8551 4.50145 2.81202 6.11955 2.81202Z" fill="#EB4335"/>
</g>
<defs>
<clipPath id="clip0_3_43">
<rect width="12" height="12" fill="white" transform="translate(0 0.5)"/>
</clipPath>
</defs>
</svg>
